<mxfile host="app.diagrams.net" modified="2024-04-17T13:12:48.369Z" agent="Mozilla/5.0 (Macintosh; Intel Mac OS X 10_15_7) AppleWebKit/537.36 (KHTML, like Gecko) Chrome/125.0.0.0 Safari/537.36 Edg/125.0.0.0" version="24.2.5" etag="nfXwWnCPASy-7qtVfTBJ" type="github">
  <diagram name="第 1 页" id="0qp_KcZFR5aPIlx1glYG">
    <mxGraphModel>
      <root>
        <mxCell id="0" />
        <mxCell id="1" parent="0" />
      </root>
    </mxGraphModel>
  </diagram>
</mxfile>
